<svg width="28" height="34" viewBox="0 0 28 34"  xmlns="http://www.w3.org/2000/svg">
<path d="M23.7714 33.1715C24.6353 33.1715 25.4637 32.8284 26.0746 32.2175C26.6854 31.6067 27.0286 30.7782 27.0286 29.9144V21.7715L18.8857 28.2858V23.4001H7.48572V20.1429H18.8857V15.2572L27.0286 21.7715V10.3715L17.2571 0.600098H4.22858C3.36473 0.600098 2.53626 0.94326 1.92543 1.55409C1.3146 2.16492 0.971436 2.99339 0.971436 3.85724V29.9144C0.971436 30.7782 1.3146 31.6067 1.92543 32.2175C2.53626 32.8284 3.36473 33.1715 4.22858 33.1715H23.7714ZM15.6286 3.85724L23.7714 12.0001H15.6286V3.85724Z" fill="white"/>
</svg>
