<svg width="16" height="18" viewBox="0 0 16 18"  xmlns="http://www.w3.org/2000/svg">
<path d="M8 0.75C8.68613 0.749903 9.34752 1.0063 9.85429 1.46886C10.3611 1.93142 10.6766 2.56671 10.739 3.25H15C15.19 3.25006 15.3729 3.32224 15.5118 3.45197C15.6506 3.5817 15.7351 3.7593 15.748 3.94888C15.761 4.13846 15.7015 4.32589 15.5816 4.4733C15.4617 4.62071 15.2902 4.7171 15.102 4.743L15 4.75H14.417L13.15 15.73C13.0936 16.2174 12.86 16.667 12.4936 16.9934C12.1272 17.3198 11.6537 17.5001 11.163 17.5H4.837C4.34635 17.5001 3.87279 17.3198 3.50642 16.9934C3.14005 16.667 2.90642 16.2174 2.85 15.73L1.582 4.75H1C0.818762 4.74999 0.643658 4.68436 0.507069 4.56523C0.370481 4.44611 0.281648 4.28155 0.257 4.102L0.25 4C0.250008 3.81876 0.315643 3.64366 0.434767 3.50707C0.553891 3.37048 0.718446 3.28165 0.898 3.257L1 3.25H5.261C5.32338 2.56671 5.63893 1.93142 6.14571 1.46886C6.65248 1.0063 7.31387 0.749903 8 0.75ZM6.5 7C6.255 7 6.05 7.155 6.008 7.359L6 7.438V13.563L6.008 13.641C6.05 13.845 6.255 14 6.5 14C6.745 14 6.95 13.845 6.992 13.641L7 13.562V7.439L6.992 7.359C6.95 7.156 6.745 7 6.5 7ZM9.5 7C9.255 7 9.05 7.155 9.008 7.359L9 7.438V13.563L9.008 13.641C9.05 13.845 9.255 14 9.5 14C9.745 14 9.95 13.845 9.992 13.641L10 13.562V7.439L9.992 7.359C9.95 7.156 9.745 7.001 9.5 7.001V7ZM8 2.25C7.395 2.25 6.89 2.68 6.775 3.25H9.225C9.109 2.68 8.605 2.25 8 2.25Z" fill="#5E5E5E"/>
</svg>
