<svg width="23" height="15" viewBox="0 0 23 15"  xmlns="http://www.w3.org/2000/svg">
<path d="M11.25 3.125C10.836 3.13147 10.425 3.19724 10.0297 3.32031C10.2125 3.64192 10.3099 4.00504 10.3125 4.375C10.3125 4.66227 10.2559 4.94672 10.146 5.21212C10.036 5.47752 9.8749 5.71867 9.67177 5.9218C9.46865 6.12492 9.2275 6.28605 8.9621 6.39599C8.6967 6.50592 8.41225 6.5625 8.12498 6.5625C7.75502 6.55993 7.3919 6.46256 7.07029 6.27969C6.81655 7.15969 6.84613 8.09721 7.15482 8.95947C7.46352 9.82172 8.03568 10.565 8.79028 11.084C9.54487 11.603 10.4436 11.8714 11.3593 11.8513C12.2749 11.8311 13.161 11.5233 13.892 10.9716C14.623 10.4199 15.1618 9.65212 15.4323 8.7771C15.7027 7.90209 15.6909 6.96417 15.3987 6.0962C15.1064 5.22823 14.5485 4.47421 13.8039 3.94096C13.0593 3.4077 12.1658 3.12224 11.25 3.125ZM22.364 6.92969C20.2457 2.79648 16.0519 0 11.25 0C6.44803 0 2.2531 2.79844 0.135916 6.93008C0.0465575 7.10684 0 7.30213 0 7.5002C0 7.69826 0.0465575 7.89355 0.135916 8.07031C2.25428 12.2035 6.44803 15 11.25 15C16.0519 15 20.2469 12.2016 22.364 8.06992C22.4534 7.89316 22.5 7.69787 22.5 7.4998C22.5 7.30174 22.4534 7.10645 22.364 6.92969ZM11.25 13.125C7.39646 13.125 3.86365 10.9766 1.95584 7.5C3.86365 4.02344 7.39607 1.875 11.25 1.875C15.1039 1.875 18.6363 4.02344 20.5441 7.5C18.6367 10.9766 15.1039 13.125 11.25 13.125Z" fill="currentColor"/>
</svg>
