<svg width="100" height="68" viewBox="0 0 100 68" fill="none" xmlns="http://www.w3.org/2000/svg">
<path d="M6.7152 58.1272V65.3999H5.38707L2.22301 60.8225H2.16974V65.3999H0.632102V58.1272H1.98153L5.12074 62.701H5.18466V58.1272H6.7152ZM10.4146 67.559C9.92454 67.559 9.50432 67.4915 9.15394 67.3566C8.80593 67.224 8.52894 67.0429 8.32298 66.8133C8.11701 66.5836 7.98325 66.3256 7.9217 66.0391L9.32085 65.8509C9.36346 65.9598 9.43093 66.0616 9.52326 66.1563C9.61559 66.251 9.73751 66.3267 9.88903 66.3836C10.0429 66.4428 10.2299 66.4723 10.4501 66.4723C10.7792 66.4723 11.0502 66.3919 11.2633 66.2309C11.4788 66.0723 11.5865 65.8059 11.5865 65.4319V64.434H11.5225C11.4563 64.5855 11.3568 64.7287 11.2243 64.8637C11.0917 64.9986 10.9212 65.1087 10.7129 65.1939C10.5046 65.2792 10.256 65.3218 9.96715 65.3218C9.55759 65.3218 9.18472 65.2271 8.84854 65.0377C8.51474 64.8459 8.2484 64.5535 8.04954 64.1606C7.85304 63.7652 7.75479 63.2657 7.75479 62.662C7.75479 62.0441 7.85541 61.528 8.05664 61.1137C8.25787 60.6994 8.52539 60.3892 8.8592 60.1833C9.19537 59.9773 9.56351 59.8743 9.9636 59.8743C10.269 59.8743 10.5247 59.9264 10.7306 60.0306C10.9366 60.1324 11.1023 60.2602 11.2278 60.4141C11.3556 60.5656 11.4539 60.7148 11.5225 60.8615H11.5794V59.9454H13.0815V65.4532C13.0815 65.9172 12.9679 66.3054 12.7406 66.6179C12.5133 66.9304 12.1984 67.1648 11.796 67.3211C11.3959 67.4797 10.9354 67.559 10.4146 67.559ZM10.4466 64.1854C10.6904 64.1854 10.8964 64.125 11.0645 64.0043C11.2349 63.8812 11.3651 63.706 11.4551 63.4787C11.5474 63.2491 11.5936 62.9745 11.5936 62.6549C11.5936 62.3353 11.5486 62.0583 11.4586 61.8239C11.3687 61.5872 11.2385 61.4037 11.068 61.2735C10.8975 61.1433 10.6904 61.0782 10.4466 61.0782C10.198 61.0782 9.98846 61.1456 9.818 61.2806C9.64755 61.4132 9.51853 61.5978 9.43093 61.8346C9.34334 62.0713 9.29954 62.3447 9.29954 62.6549C9.29954 62.9697 9.34334 63.242 9.43093 63.4716C9.52089 63.6989 9.64992 63.8753 9.818 64.0008C9.98846 64.1239 10.198 64.1854 10.4466 64.1854ZM15.8407 65.5029C15.4927 65.5029 15.1826 65.4425 14.9103 65.3218C14.6381 65.1987 14.4226 65.0176 14.264 64.7785C14.1078 64.537 14.0297 64.2363 14.0297 63.8765C14.0297 63.5734 14.0853 63.3189 14.1966 63.113C14.3078 62.907 14.4593 62.7413 14.6511 62.6158C14.8429 62.4903 15.0607 62.3956 15.3045 62.3317C15.5507 62.2678 15.8088 62.2228 16.0787 62.1968C16.3959 62.1636 16.6516 62.1329 16.8457 62.1044C17.0398 62.0737 17.1807 62.0287 17.2683 61.9695C17.3559 61.9103 17.3997 61.8227 17.3997 61.7067V61.6854C17.3997 61.4605 17.3287 61.2865 17.1866 61.1634C17.0469 61.0403 16.8481 60.9787 16.59 60.9787C16.3178 60.9787 16.1011 61.0391 15.9402 61.1598C15.7792 61.2782 15.6726 61.4274 15.6206 61.6073L14.2214 61.4937C14.2924 61.1622 14.4321 60.8758 14.6404 60.6343C14.8488 60.3904 15.1175 60.2034 15.4466 60.0732C15.778 59.9406 16.1615 59.8743 16.5971 59.8743C16.9002 59.8743 17.1902 59.9098 17.4672 59.9809C17.7465 60.0519 17.9939 60.162 18.2093 60.3111C18.4271 60.4603 18.5988 60.652 18.7243 60.8864C18.8497 61.1184
18.9125 61.3966 18.9125 61.7209V65.3999H17.4778V64.6435H17.4352C17.3476 64.814 17.2304 64.9643 17.0836 65.0945C16.9368 65.2223 16.7605 65.323 16.5545 65.3964C16.3485 65.4674 16.1106 65.5029 15.8407 65.5029ZM16.274 64.4589C16.4965 64.4589 16.693 64.4151 16.8635 64.3275C17.0339 64.2375 17.1677 64.1168 17.2647 63.9652C17.3618 63.8137 17.4103 63.6421 17.4103 63.4503V62.8715C17.363 62.9023 17.2979 62.9307 17.215 62.9567C17.1345 62.9804 17.0434 63.0029 16.9416 63.0242C16.8398 63.0431 16.738 63.0609 16.6362 63.0775C16.5344 63.0917 16.4421 63.1047 16.3592 63.1165C16.1816 63.1426 16.0266 63.184 15.894 63.2408C15.7614 63.2976 15.6584 63.3746 15.585 63.4716C15.5117 63.5663 15.475 63.6847 15.475 63.8267C15.475 64.0327 15.5495 64.1901 15.6987 64.2991C15.8502 64.4056 16.042 64.4589 16.274 64.4589ZM17.3677 59.2919L16.6539 58.4255L15.9402 59.2919H14.6511V59.2422L16.0893 57.6797H17.215L18.6568 59.2422V59.2919H17.3677ZM21.5989 62.2465V65.3999H20.0861V59.9454H21.5279V60.9077H21.5918C21.7125 60.5905 21.915 60.3395 22.199 60.1549C22.4831 59.9678 22.8276 59.8743 23.2324 59.8743C23.6112 59.8743 23.9415 59.9572 24.2232 60.1229C24.5049 60.2886 24.7239 60.5254 24.8801 60.8331C25.0364 61.1385 25.1145 61.5031 25.1145 61.9269V65.3999H23.6017V62.1968C23.6041 61.863 23.5189 61.6026 23.3461 61.4155C23.1732 61.2261 22.9353 61.1314 22.6323 61.1314C22.4287 61.1314 22.2488 61.1752 22.0925 61.2628C21.9386 61.3504 21.8179 61.4783 21.7303 61.6464C21.6451 61.8121 21.6013 62.0121 21.5989 62.2465ZM30.1341 62.2465V65.3999H28.6213V58.1272H30.0914V60.9077H30.1554C30.2785 60.5857 30.4773 60.3336 30.752 60.1513C31.0266 59.9667 31.371 59.8743 31.7853 59.8743C32.1641 59.8743 32.4944 59.9572 32.7761 60.1229C33.0602 60.2863 33.2804 60.5218 33.4366 60.8296C33.5952 61.135 33.6734 61.5008 33.671 61.9269V65.3999H32.1582V62.1968C32.1606 61.8606 32.0753 61.599 31.9025 61.412C31.7321 61.2249 31.493 61.1314 31.1852 61.1314C30.9792 61.1314 30.7969 61.1752 30.6383 61.2628C30.4821 61.3504 30.359 61.4783 30.269 61.6464C30.1814 61.8121 30.1364 62.0121 30.1341 62.2465ZM36.4169 65.5029C36.0689 65.5029 35.7588 65.4425 35.4865 65.3218C35.2143 65.1987 34.9988 65.0176 34.8402 64.7785C34.6839 64.537 34.6058 64.2363 34.6058 63.8765C34.6058 63.5734 34.6615 63.3189 34.7727 63.113C34.884 62.907 35.0355 62.7413 35.2273 62.6158C35.419 62.4903 35.6368 62.3956 35.8807 62.3317C36.1269 62.2678 36.3849 62.2228 36.6548 62.1968C36.9721 62.1636 37.2277 62.1329 37.4219 62.1044C37.616 62.0737 37.7569 62.0287 37.8445 61.9695C37.9321 61.9103 37.9759 61.8227 37.9759 61.7067V61.6854C37.9759 61.4605 37.9048 61.2865 37.7628 61.1634C37.6231 61.0403 37.4242 60.9787 37.1662 60.9787C36.8939 60.9787 36.6773 61.0391 36.5163 61.1598C36.3554 61.2782 36.2488 61.4274 36.1967 61.6073L34.7976 61.4937C34.8686 61.1622 35.0083 60.8758 35.2166 60.6343C35.425 60.3904 35.6937 60.2034 36.0227 60.0732C36.3542 59.9406 36.7377 59.8743 37.1733 59.8743C37.4763 59.8743 37.7663 59.9098 38.0433 59.9809C38.3227 60.0519 38.5701 60.162 38.7855 60.3111C39.0033 60.4603
39.175 60.652 39.3004 60.8864C39.4259 61.1184 39.4886 61.3966 39.4886 61.7209V65.3999H38.054V64.6435H38.0114C37.9238 64.814 37.8066 64.9643 37.6598 65.0945C37.513 65.2223 37.3366 65.323 37.1307 65.3964C36.9247 65.4674 36.6868 65.5029 36.4169 65.5029ZM36.8501 64.4589C37.0727 64.4589 37.2692 64.4151 37.4396 64.3275C37.6101 64.2375 37.7438 64.1168 37.8409 63.9652C37.938 63.8137 37.9865 63.6421 37.9865 63.4503V62.8715C37.9392 62.9023 37.8741 62.9307 37.7912 62.9567C37.7107 62.9804 37.6196 63.0029 37.5178 63.0242C37.416 63.0431 37.3142 63.0609 37.2124 63.0775C37.1106 63.0917 37.0182 63.1047 36.9354 63.1165C36.7578 63.1426 36.6027 63.184 36.4702 63.2408C36.3376 63.2976 36.2346 63.3746 36.1612 63.4716C36.0878 63.5663 36.0511 63.6847 36.0511 63.8267C36.0511 64.0327 36.1257 64.1901 36.2749 64.2991C36.4264 64.4056 36.6181 64.4589 36.8501 64.4589ZM36.7045 59.2422L35.6214 57.6265H37.017L37.7734 59.2422H36.7045ZM42.1751 62.2465V65.3999H40.6623V59.9454H42.104V60.9077H42.168C42.2887 60.5905 42.4911 60.3395 42.7752 60.1549C43.0593 59.9678 43.4038 59.8743 43.8086 59.8743C44.1874 59.8743 44.5176 59.9572 44.7994 60.1229C45.0811 60.2886 45.3001 60.5254 45.4563 60.8331C45.6126 61.1385 45.6907 61.5031 45.6907 61.9269V65.3999H44.1779V62.1968C44.1803 61.863 44.0951 61.6026 43.9222 61.4155C43.7494 61.2261 43.5115 61.1314 43.2085 61.1314C43.0049 61.1314 42.8249 61.1752 42.6687 61.2628C42.5148 61.3504 42.3941 61.4783 42.3065 61.6464C42.2212 61.8121 42.1774 62.0121 42.1751 62.2465ZM49.3404 67.559C48.8503 67.559 48.4301 67.4915 48.0797 67.3566C47.7317 67.224 47.4547 67.0429 47.2488 66.8133C47.0428 66.5836 46.909 66.3256 46.8475 66.0391L48.2466 65.8509C48.2892 65.9598 48.3567 66.0616 48.449 66.1563C48.5414 66.251 48.6633 66.3267 48.8148 66.3836C48.9687 66.4428 49.1557 66.4723 49.3759 66.4723C49.705 66.4723 49.976 66.3919 50.1891 66.2309C50.4045 66.0723 50.5123 65.8059 50.5123 65.4319V64.434H50.4483C50.382 64.5855 50.2826 64.7287 50.15 64.8637C50.0175 64.9986 49.847 65.1087 49.6387 65.1939C49.4303 65.2792 49.1818 65.3218 48.8929 65.3218C48.4834 65.3218 48.1105 65.2271 47.7743 65.0377C47.4405 64.8459 47.1742 64.5535 46.9753 64.1606C46.7788 63.7652 46.6806 63.2657 46.6806 62.662C46.6806 62.0441 46.7812 61.528 46.9824 61.1137C47.1837 60.6994 47.4512 60.3892 47.785 60.1833C48.1212 59.9773 48.4893 59.8743 48.8894 59.8743C49.1948 59.8743 49.4505 59.9264 49.6564 60.0306C49.8624 60.1324 50.0281 60.2602 50.1536 60.4141C50.2814 60.5656 50.3797 60.7148 50.4483 60.8615H50.5051V59.9454H52.0073V65.4532C52.0073 65.9172 51.8936 66.3054 51.6664 66.6179C51.4391 66.9304 51.1242 67.1648 50.7218 67.3211C50.3217 67.4797 49.8612 67.559 49.3404 67.559ZM49.3723 64.1854C49.6162 64.1854 49.8221 64.125 49.9902 64.0043C50.1607 63.8812 50.2909 63.706 50.3809 63.4787C50.4732 63.2491 50.5194 62.9745 50.5194 62.6549C50.5194 62.3353 50.4744 62.0583 50.3844 61.8239C50.2944 61.5872 50.1642 61.4037 49.9938 61.2735C49.8233 61.1433 49.6162 61.0782 49.3723 61.0782C49.1238 61.0782 48.9142 61.1456 48.7438
61.2806C48.5733 61.4132 48.4443 61.5978 48.3567 61.8346C48.2691 62.0713 48.2253 62.3447 48.2253 62.6549C48.2253 62.9697 48.2691 63.242 48.3567 63.4716C48.4467 63.6989 48.5757 63.8753 48.7438 64.0008C48.9142 64.1239 49.1238 64.1854 49.3723 64.1854ZM56.7898 59.9454L57.7912 61.8523L58.8175 59.9454H60.3693L58.7891 62.6726L60.4119 65.3999H58.8672L57.7912 63.5142L56.733 65.3999H55.1705L56.7898 62.6726L55.2273 59.9454H56.7898ZM62.7939 65.5029C62.4458 65.5029 62.1357 65.4425 61.8635 65.3218C61.5912 65.1987 61.3758 65.0176 61.2172 64.7785C61.0609 64.537 60.9828 64.2363 60.9828 63.8765C60.9828 63.5734 61.0384 63.3189 61.1497 63.113C61.2609 62.907 61.4125 62.7413 61.6042 62.6158C61.796 62.4903 62.0138 62.3956 62.2576 62.3317C62.5038 62.2678 62.7619 62.2228 63.0318 62.1968C63.349 62.1636 63.6047 62.1329 63.7988 62.1044C63.993 62.0737 64.1338 62.0287 64.2214 61.9695C64.309 61.9103 64.3528 61.8227 64.3528 61.7067V61.6854C64.3528 61.4605 64.2818 61.2865 64.1397 61.1634C64.0001 61.0403 63.8012 60.9787 63.5431 60.9787C63.2709 60.9787 63.0543 61.0391 62.8933 61.1598C62.7323 61.2782 62.6258 61.4274 62.5737 61.6073L61.1745 61.4937C61.2456 61.1622 61.3852 60.8758 61.5936 60.6343C61.8019 60.3904 62.0706 60.2034 62.3997 60.0732C62.7311 59.9406 63.1146 59.8743 63.5502 59.8743C63.8533 59.8743 64.1433 59.9098 64.4203 59.9809C64.6996 60.0519 64.947 60.162 65.1625 60.3111C65.3803 60.4603 65.5519 60.652 65.6774 60.8864C65.8029 61.1184 65.8656 61.3966 65.8656 61.7209V65.3999H64.4309V64.6435H64.3883C64.3007 64.814 64.1835 64.9643 64.0368 65.0945C63.89 65.2223 63.7136 65.323 63.5076 65.3964C63.3017 65.4674 63.0637 65.5029 62.7939 65.5029ZM63.2271 64.4589C63.4496 64.4589 63.6461 64.4151 63.8166 64.3275C63.987 64.2375 64.1208 64.1168 64.2179 63.9652C64.3149 63.8137 64.3635 63.6421 64.3635 63.4503V62.8715C64.3161 62.9023 64.251 62.9307 64.1681 62.9567C64.0877 62.9804 63.9965 63.0029 63.8947 63.0242C63.7929 63.0431 63.6911 63.0609 63.5893 63.0775C63.4875 63.0917 63.3952 63.1047 63.3123 63.1165C63.1348 63.1426 62.9797 63.184 62.8471 63.2408C62.7145 63.2976 62.6116 63.3746 62.5382 63.4716C62.4648 63.5663 62.4281 63.6847 62.4281 63.8267C62.4281 64.0327 62.5027 64.1901 62.6518 64.2991C62.8033 64.4056 62.9951 64.4589 63.2271 64.4589ZM64.3208 59.2919L63.6071 58.4255L62.8933 59.2919H61.6042V59.2422L63.0424 57.6797H64.1681L65.6099 59.2422V59.2919H64.3208ZM67.7779 67.4454C67.5861 67.4454 67.4062 67.43 67.2381 67.3992C67.0724 67.3708 66.9351 67.3341 66.8262 67.2891L67.1671 66.1598C67.3446 66.2143 67.5044 66.2439 67.6465 66.2486C67.7909 66.2534 67.9152 66.2202 68.0194 66.1492C68.1259 66.0782 68.2123 65.9574 68.2786 65.787L68.3674 65.5562L66.4107 59.9454H68.0016L69.1309 63.951H69.1877L70.3276 59.9454H71.9292L69.8091 65.9894C69.7073 66.283 69.5688 66.5386 69.3936 66.7564C69.2208 66.9766 69.0018 67.1459 68.7367 67.2642C68.4715 67.385 68.1519 67.4454 67.7779 67.4454ZM77.0277 65.4887C76.6134 65.4887 76.2382 65.3821 75.902 65.1691C75.5682 64.9536 75.303 64.6376 75.1065 64.2209C74.9124 63.8019
74.8153 63.2882 74.8153 62.6797C74.8153 62.0547 74.916 61.5351 75.1172 61.1208C75.3184 60.7041 75.5859 60.3928 75.9197 60.1868C76.2559 59.9785 76.6241 59.8743 77.0241 59.8743C77.3295 59.8743 77.584 59.9264 77.7876 60.0306C77.9936 60.1324 78.1593 60.2602 78.2848 60.4141C78.4126 60.5656 78.5097 60.7148 78.576 60.8615H78.6222V58.1272H80.1314V65.3999H78.6399V64.5263H78.576C78.505 64.6778 78.4044 64.8282 78.2741 64.9773C78.1463 65.1241 77.9794 65.246 77.7734 65.3431C77.5698 65.4401 77.3213 65.4887 77.0277 65.4887ZM77.5071 64.2848C77.7509 64.2848 77.9569 64.2186 78.125 64.086C78.2955 63.951 78.4257 63.7628 78.5156 63.5214C78.608 63.2799 78.6541 62.997 78.6541 62.6726C78.6541 62.3483 78.6091 62.0666 78.5192 61.8275C78.4292 61.5883 78.299 61.4037 78.1286 61.2735C77.9581 61.1433 77.7509 61.0782 77.5071 61.0782C77.2585 61.0782 77.049 61.1456 76.8786 61.2806C76.7081 61.4155 76.5791 61.6026 76.4915 61.8417C76.4039 62.0808 76.3601 62.3578 76.3601 62.6726C76.3601 62.9899 76.4039 63.2704 76.4915 63.5142C76.5814 63.7557 76.7105 63.9451 76.8786 64.0824C77.049 64.2174 77.2585 64.2848 77.5071 64.2848ZM87.1422 59.6435H88.0194C88.017 60.0554 87.9554 60.4011 87.8347 60.6804C87.714 60.9574 87.5092 61.1658 87.2203 61.3054C86.9339 61.4451 86.5421 61.515 86.0449 61.515V60.8402C86.374 60.8402 86.6155 60.7964 86.7694 60.7089C86.9256 60.6213 87.0262 60.4899 87.0712 60.3147C87.1185 60.1371 87.1422 59.9134 87.1422 59.6435ZM84.9086 63.0775V59.9454H86.4178V65.3999H84.9689V64.4091H84.9121C84.789 64.7287 84.5842 64.9856 84.2978 65.1797C84.0137 65.3739 83.6668 65.4709 83.2573 65.4709C82.8927 65.4709 82.5719 65.3881 82.2949 65.2223C82.0179 65.0566 81.8013 64.8211 81.6451 64.5157C81.4912 64.2103 81.4131 63.8445 81.4107 63.4184V59.9454H82.9235V63.1485C82.9235 63.4705 83.0087 63.7249 83.1792 63.912C83.352 64.099 83.5816 64.1925 83.8681 64.1925C84.0504 64.1925 84.2196 64.1511 84.3759 64.0682C84.5345 63.983 84.6623 63.8575 84.7594 63.6918C84.8588 63.5261 84.9086 63.3213 84.9086 63.0775ZM84.1451 67.4418C83.9202 67.4418 83.7272 67.3672 83.5662 67.2181C83.4052 67.0689 83.3248 66.889 83.3248 66.6783C83.3248 66.4676 83.4052 66.2877 83.5662 66.1385C83.7272 65.9894 83.9202 65.9148 84.1451 65.9148C84.37 65.9148 84.5617 65.9894 84.7203 66.1385C84.8813 66.2877 84.9618 66.4676 84.9618 66.6783C84.9618 66.889 84.8813 67.0689 84.7203 67.2181C84.5617 67.3672 84.37 67.4418 84.1451 67.4418ZM89.9778 62.2465V65.3999H88.465V59.9454H89.9068V60.9077H89.9707C90.0914 60.5905 90.2939 60.3395 90.5779 60.1549C90.862 59.9678 91.2065 59.8743 91.6113 59.8743C91.9901 59.8743 92.3204 59.9572 92.6021 60.1229C92.8838 60.2886 93.1028 60.5254 93.2591 60.8331C93.4153 61.1385 93.4934 61.5031 93.4934 61.9269V65.3999H91.9806V62.1968C91.983 61.863 91.8978 61.6026 91.725 61.4155C91.5521 61.2261 91.3142 61.1314 91.0112 61.1314C90.8076 61.1314 90.6277 61.1752 90.4714 61.2628C90.3175 61.3504 90.1968 61.4783 90.1092 61.6464C90.024 61.8121 89.9802 62.0121 89.9778 62.2465ZM97.1431 67.559C96.6531 67.559 96.2328 67.4915 95.8825
67.3566C95.5344 67.224 95.2575 67.0429 95.0515 66.8133C94.8455 66.5836 94.7118 66.3256 94.6502 66.0391L96.0494 65.8509C96.092 65.9598 96.1594 66.0616 96.2518 66.1563C96.3441 66.251 96.466 66.3267 96.6175 66.3836C96.7714 66.4428 96.9585 66.4723 97.1786 66.4723C97.5077 66.4723 97.7788 66.3919 97.9918 66.2309C98.2073 66.0723 98.315 65.8059 98.315 65.4319V64.434H98.2511C98.1848 64.5855 98.0853 64.7287 97.9528 64.8637C97.8202 64.9986 97.6497 65.1087 97.4414 65.1939C97.2331 65.2792 96.9845 65.3218 96.6957 65.3218C96.2861 65.3218 95.9132 65.2271 95.5771 65.0377C95.2433 64.8459 94.9769 64.5535 94.7781 64.1606C94.5816 63.7652 94.4833 63.2657 94.4833 62.662C94.4833 62.0441 94.5839 61.528 94.7852 61.1137C94.9864 60.6994 95.2539 60.3892 95.5877 60.1833C95.9239 59.9773 96.292 59.8743 96.6921 59.8743C96.9975 59.8743 97.2532 59.9264 97.4592 60.0306C97.6651 60.1324 97.8308 60.2602 97.9563 60.4141C98.0842 60.5656 98.1824 60.7148 98.2511 60.8615H98.3079V59.9454H99.81V65.4532C99.81 65.9172 99.6964 66.3054 99.4691 66.6179C99.2418 66.9304 98.927 67.1648 98.5245 67.3211C98.1244 67.4797 97.6639 67.559 97.1431 67.559ZM97.1751 64.1854C97.4189 64.1854 97.6249 64.125 97.793 64.0043C97.9634 63.8812 98.0936 63.706 98.1836 63.4787C98.2759 63.2491 98.3221 62.9745 98.3221 62.6549C98.3221 62.3353 98.2771 62.0583 98.1871 61.8239C98.0972 61.5872 97.967 61.4037 97.7965 61.2735C97.6261 61.1433 97.4189 61.0782 97.1751 61.0782C96.9265 61.0782 96.717 61.1456 96.5465 61.2806C96.3761 61.4132 96.247 61.5978 96.1594 61.8346C96.0719 62.0713 96.0281 62.3447 96.0281 62.6549C96.0281 62.9697 96.0719 63.242 96.1594 63.4716C96.2494 63.6989 96.3784 63.8753 96.5465 64.0008C96.717 64.1239 96.9265 64.1854 97.1751 64.1854Z" fill="white"/>
<path d="M59.0112 14.1125V23.8641H59.0132C59.0137 24.4588 59.3407 25.0338 59.9096 25.3181L59.9102 25.3189L76.5058 33.6157V23.8646L66.7541 18.9884L59.9104 15.5671L59.9096 15.5663V15.5658C59.3407 15.2816 59.0137 14.7082 59.0132 14.1125H59.0112Z" fill="white"/>
<path d="M76.5062 23.864L86.2581 28.7402L93.1021 25.3182H93.1022V25.3172C93.6714 25.0327 93.9978 24.4588 94 23.864C94 23.6192 93.9454 23.3722 93.8286 23.137C93.6714 22.8229 93.4164 22.5682 93.1019 22.4111L76.5059 14.1125V23.864H76.5062Z" fill="white"/>
<path d="M93.9997 23.8636C93.9975 24.4585 93.6711 25.0323 93.1019 25.3169V25.3178H93.1018L86.2578 28.7399L76.5059 33.6154V43.3672L93.1018 35.0698H93.1019V35.0682C93.6711 34.7841 93.9975 34.2109 93.9997 33.6154V23.8636Z" fill="white"/>
<path d="M76.5059 4.36168L59.9104 12.6582L59.9097 12.6594C59.5952 12.8166 59.3408 13.0711 59.1831 13.3855C59.0662 13.6193 59.0126 13.8675 59.0133 14.1123C59.0138 14.7081 59.3408 15.2815 59.9097 15.5656V15.5661L59.9106 15.567L66.7542 18.9883L76.5059 14.1123L85.2289 18.4737V-5.97626e-05L76.5063 4.36168H76.5059Z" fill="white"/>
<path d="M15.7722 46.7612C13.6168 46.7612 12.0554 46.6113 11.0887 46.3102C10.174 45.9965 9.39676 45.2652 8.75654 44.1155C8.44325 43.5277 8.19149 42.9856 8.00213 42.4888C7.81248 41.9925 7.65569 41.5156 7.53176 41.0582C7.40744 40.6011 7.32612 40.1536 7.28673 39.7161C7.24753 39.2781 7.22784 38.792 7.22784 38.2558C7.22784 37.3153 7.31637 36.4042 7.49276 35.522C7.66895 34.6403 8.03801 33.7163 8.59984 32.7492C9.16158 31.7826 9.99135 31.1196 11.0887 30.7602C12.186 30.4009 13.5905 30.2213 15.3024 30.2213H18.9845V30.2207C19.5477 30.2207 20.0709 29.9292 20.3669 29.45L23.8195 23.864H13.2719C10.7873 23.864 8.62188 24.2098 6.77531 24.9006C4.92874 25.5917 3.50057 26.7938 2.49089 28.5071C1.50754 30.1947 0.846938 31.8355 0.507909 33.4296C0.169271 35.0239 0 36.7312 0 38.551C0 40.3448 0.189161 42.0921 0.567875 43.7926C0.946491 45.493 1.61402 47.1603 2.57065 48.7942C3.06208 49.6046 3.60695 50.2889 4.20476 50.8471C4.80257 51.4047 5.49671 51.8467 6.2871 52.1722C7.07758 52.4978 7.9877 52.737 9.01736 52.8896C10.0467 53.0421 11.2325 53.1187 12.5745 53.1187H19.8554C20.4186 53.1187 20.9418 52.8269 21.2379 52.3478L24.691 46.7612H24.5979H15.7722Z" fill="white"/>
<path d="M47.3009 32.7953C47.3009 33.6469 46.921 34.2758 46.1613 34.6818C45.4015 35.088 44.2161 35.2906 42.6051 35.2906H40.3574C39.8021 35.2906 39.2865 35.5782 38.9945 36.0509L38.9943 36.0511V36.0513L35.529 41.6571V35.2906V30.2213H42.8016C44.4648 30.2213 45.6435 30.3915 46.3383 30.8891C47.0324 31.3873 47.3533 32.0228 47.3009 32.7953ZM46.4901 53.1149C48.4295 53.1149 49.9708 52.9487 51.1132 52.6166C52.2556 52.298 53.2584 51.4879 54.122 50.1858C54.9721 48.8442 55.3974 47.4158 55.3974 45.9014C55.344 43.8826 54.8327 42.2617 53.8634 41.0397C52.8931 39.8173 51.7177 39.0006 50.3362 38.5887C52.4466 37.9239 53.8195 35.853 54.2097 34.0255C54.3156 33.5077 54.3956 33.0493 54.4487 32.6508C54.5019 32.2523 54.5286 31.9067 54.5286 31.6144C54.5286 30.6581 54.3956 29.7185 54.1297 28.7951C53.8643 27.8718 53.346 26.9584 52.5757 26.055C52.2036 25.5904 51.7987 25.2151 51.3604 24.9292C50.9217 24.6436 50.4169 24.4211 49.846 24.2615C49.2745 24.1022 48.6206 23.9963 47.8832 23.943C47.1457 23.8898 47.0084 23.863 46.0917 23.863V23.862L28.3052 23.8641L28.3038 53.1191L46.4901 53.1149ZM43.0211 41.6565C44.9193 41.6565 46.2604 41.7664 47.053 42.2554C47.8458 42.7457 48.2165 43.4036 48.1648 44.2282C48.1648 44.6666 48.0201 45.1308 47.7299 45.6205C47.44 46.1107 47.0174 46.4202 46.4631 46.5486C45.8831 46.6907 45.0132 46.7613 43.8529 46.7613H35.529V41.6567L43.0211 41.6565Z" fill="white"/>
</svg>