<svg width="17" height="21" viewBox="0 0 17 21" fill="none" xmlns="http://www.w3.org/2000/svg">
<path d="M14.4935 12.5835C15.7873 12.5835 16.836 13.6323 16.836 14.9261V15.5255C16.836 16.457 16.5031 17.3579 15.8974 18.0656C14.2626 19.9755 11.776 20.918 8.49959 20.918C5.22262 20.918 2.73719 19.9752 1.10563 18.0644C0.501714 17.3573 0.169922 16.4578 0.169922 15.5278V14.9261C0.169922 13.6323 1.21872 12.5835 2.51249 12.5835H14.4935ZM14.4935 14.146H2.51249C2.08167 14.146 1.73242 14.4953 1.73242 14.9261V15.5278C1.73242 16.0858 1.93149 16.6255 2.29385 17.0498C3.59937 18.5786 5.64716 19.3555 8.49959 19.3555C11.352 19.3555 13.4016 18.5786 14.7104 17.0495C15.0739 16.6249 15.2735 16.0843 15.2735 15.5255V14.9261C15.2735 14.4953 14.9243 14.146 14.4935 14.146ZM8.49959 0.0883789C11.376 0.0883789 13.7079 2.42023 13.7079 5.29671C13.7079 8.1732 11.376 10.5051 8.49959 10.5051C5.62308 10.5051 3.29123 8.1732 3.29123 5.29671C3.29123 2.42023 5.62308 0.0883789 8.49959 0.0883789ZM8.49959 1.65088C6.48605 1.65088 4.85373 3.28318 4.85373 5.29671C4.85373 7.31026 6.48605 8.94257 8.49959 8.94257C10.5131 8.94257 12.1454 7.31026 12.1454 5.29671C12.1454 3.28318 10.5131 1.65088 8.49959 1.65088Z" fill="#212121"/>
</svg>
